<?xml version="1.0" encoding="utf-8"?>
<!-- Generator: Adobe Illustrator 24.3.0, SVG Export Plug-In . SVG Version: 6.00 Build 0)  -->
<svg version="1.1" id="Calque_1" xmlns="http://www.w3.org/2000/svg" xmlns:xlink="http://www.w3.org/1999/xlink" x="0px" y="0px"
	 viewBox="0 0 335.16 333.12" style="enable-background:new 0 0 335.16 333.12;" xml:space="preserve">
<style type="text/css">
	.st0{fill:#FFFFFF;}
	.st1{fill:#191A10;}
</style>
<g>
	<path class="st0" d="M335.16,167.58C335.16,75.03,260.13,0,167.58,0C75.03,0,0,75.03,0,167.58c0,83.64,61.28,152.97,141.4,165.54
		v-117.1H98.85v-48.44h42.55v-36.92c0-42,25.02-65.2,63.3-65.2c18.34,0,37.51,3.27,37.51,3.27v41.24h-21.13
		c-20.82,0-27.31,12.92-27.31,26.17v31.44h46.48l-7.43,48.44h-39.05v117.1C273.88,320.55,335.16,251.22,335.16,167.58z"/>
	<path class="st1" d="M232.87,216.02l7.43-48.44h-46.48v-31.44c0-13.25,6.49-26.17,27.31-26.17h21.13V68.73
		c0,0-19.18-3.27-37.51-3.27c-38.28,0-63.3,23.2-63.3,65.2v36.92H98.9v48.44h42.55v117.1c8.53,1.34,17.28,2.04,26.18,2.04
		c8.91,0,17.65-0.7,26.19-2.04v-117.1H232.87z"/>
</g>
</svg>
