<?xml version="1.0" encoding="utf-8"?>
<!-- Generator: Adobe Illustrator 24.3.0, SVG Export Plug-In . SVG Version: 6.00 Build 0)  -->
<svg version="1.1" id="Calque_1" xmlns="http://www.w3.org/2000/svg" xmlns:xlink="http://www.w3.org/1999/xlink" x="0px" y="0px"
	 viewBox="0 0 335.16 333.12" style="enable-background:new 0 0 335.16 333.12;" xml:space="preserve">
<style type="text/css">
	.st0{fill:#FFFFFF;}
	.st1{fill:#191A10;}
</style>
<g>
	
		<ellipse transform="matrix(0.0177 -0.9998 0.9998 0.0177 -2.9364 332.1707)" class="st0" cx="167.58" cy="167.58" rx="167.58" ry="167.58"/>
	<g>
		<g>
			<path class="st1" d="M219.6,104.18c-6.36,0-11.52,5.16-11.52,11.52c0,6.36,5.16,11.52,11.52,11.52c6.36,0,11.52-5.16,11.52-11.52
				C231.12,109.34,225.96,104.18,219.6,104.18z"/>
			<path class="st1" d="M168.39,118.96c-26.68,0-48.39,21.71-48.39,48.39c0,26.68,21.71,48.39,48.39,48.39
				c26.68,0,48.39-21.71,48.39-48.39C216.77,140.66,195.07,118.96,168.39,118.96z M168.39,198.34c-17.09,0-31-13.9-31-31
				c0-17.09,13.9-31,31-31c17.09,0,30.99,13.9,30.99,31C199.38,184.44,185.48,198.34,168.39,198.34z"/>
			<path class="st1" d="M206.8,265.59h-78.45c-32.54,0-59.02-26.48-59.02-59.02v-78.45c0-32.54,26.48-59.02,59.02-59.02h78.45
				c32.54,0,59.02,26.47,59.02,59.02v78.45C265.82,239.11,239.34,265.59,206.8,265.59z M128.35,87.59
				c-22.35,0-40.53,18.18-40.53,40.53v78.45c0,22.35,18.18,40.53,40.53,40.53h78.45c22.35,0,40.54-18.18,40.54-40.53v-78.45
				c0-22.35-18.18-40.53-40.54-40.53H128.35z"/>
		</g>
	</g>
</g>
</svg>
