<?xml version="1.0" encoding="utf-8"?>
<!-- Generator: Adobe Illustrator 24.3.0, SVG Export Plug-In . SVG Version: 6.00 Build 0)  -->
<svg version="1.1" id="Calque_1" xmlns="http://www.w3.org/2000/svg" xmlns:xlink="http://www.w3.org/1999/xlink" x="0px" y="0px"
	 viewBox="0 0 335.16 333.12" style="enable-background:new 0 0 335.16 333.12;" xml:space="preserve">
<style type="text/css">
	.st0{fill:#FFFFFF;}
	.st1{fill:#191902;}
</style>
<g>
	
		<ellipse transform="matrix(0.0178 -0.9998 0.9998 0.0178 -1.8708 332.875)" class="st0" cx="168.5" cy="167.39" rx="167.58" ry="167.58"/>
	<g>
		<g>
			<path class="st1" d="M88.29,139.58h34.42v110.57H88.29V139.58z M105.5,84.63c11.01,0,19.93,8.93,19.93,19.91
				c0,11-8.92,19.94-19.93,19.94c-11.03,0-19.95-8.94-19.95-19.94C85.55,93.56,94.47,84.63,105.5,84.63"/>
		</g>
		<g>
			<path class="st1" d="M144.27,139.58h32.97v15.12h0.45c4.6-8.7,15.81-17.86,32.55-17.86c34.8,0,41.21,22.88,41.21,52.66v60.64
				H217.1v-53.76c0-12.83-0.25-29.32-17.86-29.32c-17.89,0-20.62,13.97-20.62,28.38v54.69h-34.35V139.58z"/>
		</g>
	</g>
</g>
</svg>
