<svg width="80" height="57" viewBox="0 0 80 57" fill="none" xmlns="http://www.w3.org/2000/svg">
<path d="M10.775 19.5477V22.3727H3.5V26.8477H9.075V29.6227H3.5V36.9977H0V19.5477H10.775Z" fill="black"/>
<path d="M16.7568 22.3727V26.7477H22.6318V29.5227H16.7568V34.1477H23.3818V36.9977H13.2568V19.5227H23.3818V22.3727H16.7568Z" fill="black"/>
<path d="M32.6625 19.5477C34.4958 19.5477 36.1042 19.906 37.4875 20.6227C38.8875 21.3394 39.9625 22.3644 40.7125 23.6977C41.4792 25.0144 41.8625 26.5477 41.8625 28.2977C41.8625 30.0477 41.4792 31.581 40.7125 32.8977C39.9625 34.1977 38.8875 35.206 37.4875 35.9227C36.1042 36.6394 34.4958 36.9977 32.6625 36.9977H26.5625V19.5477H32.6625ZM32.5375 34.0227C34.3708 34.0227 35.7875 33.5227 36.7875 32.5227C37.7875 31.5227 38.2875 30.1144 38.2875 28.2977C38.2875 26.481 37.7875 25.0644 36.7875 24.0477C35.7875 23.0144 34.3708 22.4977 32.5375 22.4977H30.0625V34.0227H32.5375Z" fill="black"/>
<path d="M54.8512 33.5473H47.2512L45.8512 37.4223H43.4512L49.7512 20.0973H52.3762L58.6512 37.4223H56.2512L54.8512 33.5473ZM54.2012 31.6973L51.0512 22.8973L47.9012 31.6973H54.2012Z" fill="black"/>
<path d="M63.6719 19.9973V37.4223H61.3969V19.9973H63.6719Z" fill="black"/>
<path d="M76.7242 37.4223L72.5742 30.2973H69.8242V37.4223H67.5492V19.9973H73.1742C74.4909 19.9973 75.5992 20.2223 76.4992 20.6723C77.4159 21.1223 78.0992 21.7307 78.5492 22.4973C78.9992 23.264 79.2242 24.139 79.2242 25.1223C79.2242 26.3223 78.8742 27.3807 78.1742 28.2973C77.4909 29.214 76.4576 29.8223 75.0742 30.1223L79.4492 37.4223H76.7242ZM69.8242 28.4723H73.1742C74.4076 28.4723 75.3326 28.1723 75.9492 27.5723C76.5659 26.9557 76.8742 26.139 76.8742 25.1223C76.8742 24.089 76.5659 23.289 75.9492 22.7223C75.3492 22.1557 74.4242 21.8723 73.1742 21.8723H69.8242V28.4723Z" fill="black"/>
<path d="M39.707 37.3704L38.7781 37L31.0004 56.5066L31.9293 56.8769L39.707 37.3704Z" fill="black"/>
<path d="M53.707 0.370369L52.7781 0L45.0004 19.5066L45.9293 19.8769L53.707 0.370369Z" fill="black"/>
</svg>
