<?xml version="1.0" encoding="utf-8"?>
<!-- Generator: Adobe Illustrator 24.3.0, SVG Export Plug-In . SVG Version: 6.00 Build 0)  -->
<svg version="1.1" id="Calque_1" xmlns="http://www.w3.org/2000/svg" xmlns:xlink="http://www.w3.org/1999/xlink" x="0px" y="0px"
	 viewBox="0 0 335.16 333.12" style="enable-background:new 0 0 335.16 333.12;" xml:space="preserve">
<style type="text/css">
	.st0{fill:#FFFFFF;}
	.st1{fill:#191A10;}
</style>
<g>
	
		<ellipse transform="matrix(0.0172 -0.9999 0.9999 0.0172 -2.8633 332.2464)" class="st0" cx="167.58" cy="167.58" rx="167.58" ry="167.58"/>
	<path class="st1" d="M258.22,110.39c-5.8,2.62-12.22,4.22-18.48,5.27c2.97-0.5,7.34-5.88,9.09-8.06c2.67-3.32,4.89-7.1,6.14-11.19
		c0.16-0.32,0.28-0.72-0.04-0.96c-0.4-0.16-0.66-0.08-0.98,0.08c-6.99,3.75-14.22,6.46-21.92,8.39c-0.64,0.16-1.11,0-1.51-0.4
		c-0.64-0.72-1.24-1.4-1.92-1.96c-3.23-2.75-6.7-4.91-10.62-6.5c-5.14-2.09-10.75-2.98-16.28-2.62c-5.38,0.35-10.67,1.87-15.45,4.36
		c-4.79,2.5-9.06,5.98-12.46,10.18c-3.52,4.34-6.11,9.47-7.44,14.91c-1.28,5.25-1.18,10.44-0.39,15.74c0.12,0.88,0.04,1-0.76,0.88
		c-30.1-4.48-55.05-15.25-75.3-38.33c-0.88-1-1.36-1-2.08,0.08c-8.86,13.28-4.56,34.63,6.51,45.12c1.48,1.4,2.99,2.8,4.63,4.07
		c-0.6,0.12-7.96-0.68-14.53-4.07c-0.88-0.56-1.32-0.24-1.4,0.76c-0.08,1.44,0.04,2.76,0.24,4.31c1.7,13.47,11.03,25.92,23.8,30.78
		c1.52,0.64,3.19,1.2,4.83,1.48c-2.91,0.64-5.91,1.09-14.25,0.44c-1.04-0.2-1.44,0.32-1.04,1.32c6.27,17.09,19.81,22.18,29.94,25.08
		c1.36,0.24,2.71,0.24,4.08,0.56c-0.08,0.12-0.16,0.12-0.24,0.24c-3.36,5.13-15.02,8.94-20.45,10.84c-9.87,3.45-20.62,5-31.06,3.97
		c-1.67-0.25-2.02-0.23-2.47,0c-0.46,0.28-0.06,0.68,0.48,1.11c2.12,1.4,4.27,2.64,6.47,3.83c6.63,3.51,13.54,6.31,20.76,8.31
		c37.31,10.3,79.34,2.73,107.35-25.1c22-21.86,29.71-52,29.71-82.18c0-1.18,1.4-1.83,2.23-2.46c5.72-4.3,10.34-9.45,14.61-15.19
		c0.96-1.29,0.97-2.44,0.97-2.91c0-0.08,0-0.16,0-0.16C258.96,109.91,258.96,110.06,258.22,110.39z"/>
</g>
</svg>
