<?xml version="1.0" encoding="UTF-8"?>
<!-- Generator: Adobe Illustrator 22.1.0, SVG Export Plug-In . SVG Version: 6.00 Build 0)  -->
<svg version="1.1" id="Layer_1" xmlns="http://www.w3.org/2000/svg" xmlns:xlink="http://www.w3.org/1999/xlink" x="0px" y="0px" viewBox="0 0 318.3 108.3" style="enable-background:new 0 0 318.3 108.3;" xml:space="preserve">
<style type="text/css">
	.st0{fill:#010202;}
</style>
<g>
	<g>
		<g>
			<g>
				<path class="st0" d="M38.5,23.7h15.2l20.9,60.5H57.7L54,72.3H38l-3.6,11.8H17.4L38.5,23.7z M51.4,61.3L46,42.5l-5.6,18.7H51.4z"/>
				<path class="st0" d="M263.7,54.4v29.7h-16.6V23.7H260l24.3,30.7V23.7h16.6v60.5h-13.2L263.7,54.4z"/>
			</g>
		</g>
	</g>
	<g>
		<g>
			<g>
				<path class="st0" d="M125.5,40.3c-1.3-2.9-2.9-5.4-5-7.7c-2.6-2.7-5.7-4.9-9.5-6.5c-3.8-1.6-8.2-2.4-13.2-2.4H74.5v60.5h23.2      c4.6,0,8.8-0.7,12.5-2.2c3.7-1.4,7-3.5,9.6-6.1c2.3-2.3,4.2-5,5.6-8.1c-1.7-4.2-2.6-8.8-2.6-13.7      C122.9,49.2,123.8,44.5,125.5,40.3z M110.5,60.2c-0.6,1.9-1.5,3.6-2.6,5c-1.2,1.4-2.6,2.5-4.3,3.3c-1.7,0.8-3.6,1.2-5.8,1.2      h-6.6V38.2h6.6c2.1,0,4,0.4,5.7,1.1c1.7,0.8,3.1,1.8,4.3,3.2c1.2,1.4,2.1,3,2.7,4.9c0.6,1.9,0.9,4.1,0.9,6.4      C111.4,56.1,111.1,58.2,110.5,60.2z"/>
			</g>
			<g>
				<path class="st0" d="M234.1,61.9c2.7-1.9,4.9-4.4,6.4-7.5c1.5-3,2.3-6.3,2.3-9.8c0-2.6-0.5-5.1-1.5-7.6c-1-2.5-2.4-4.8-4.2-6.7      c-1.8-2-3.9-3.5-6.4-4.8c-2.5-1.2-5.2-1.8-8.2-1.8h-27.8V40c1.8,4.4,2.8,9.1,2.8,14.2s-1,9.8-2.8,14.2v15.9h16.6V65.6h6.2      l10.6,18.6h18.7L234.1,61.9z M224.6,49.4c-0.9,1.1-1.8,1.7-2.9,1.7h-10.5V38.2h10c1,0,2,0.6,3.1,1.7c1,1.1,1.5,2.7,1.5,4.8      C225.9,46.7,225.5,48.3,224.6,49.4z"/>
			</g>
		</g>
		<g>
			<path class="st0" d="M160.2,20.5c-18.5,0-33.6,15.1-33.6,33.6s15.1,33.6,33.6,33.6s33.6-15.1,33.6-33.6S178.7,20.5,160.2,20.5z      M160.2,81.1c-14.9,0-26.9-12.1-26.9-26.9s12.1-26.9,26.9-26.9c14.8,0,26.9,12.1,26.9,26.9S175,81.1,160.2,81.1z"/>
			<g>
				<path class="st0" d="M160.2,41.8c-6.8,0-12.3,5.5-12.3,12.3c0,6.8,5.5,12.3,12.3,12.3c6.8,0,12.3-5.5,12.3-12.3      C172.5,47.3,166.9,41.8,160.2,41.8z"/>
				<path class="st0" d="M160.2,31C147.4,31,137,41.4,137,54.1s10.4,23.1,23.1,23.1c12.8,0,23.1-10.4,23.1-23.1S172.9,31,160.2,31z       M160.2,69.1c-8.3,0-15-6.7-15-15s6.7-15,15-15s15,6.7,15,15S168.4,69.1,160.2,69.1z"/>
			</g>
		</g>
	</g>
</g>
</svg>