<svg width="205" height="25" viewBox="0 0 205 25" fill="none" xmlns="http://www.w3.org/2000/svg">
<path fill-rule="evenodd" clip-rule="evenodd" d="M140.633 24.4137L155.195 0.695312H203.985V4.60601H167.387L163.772 10.5894H183.092L180.764 14.5001H161.342L157.624 20.4834H177.047L174.617 24.4137H140.633ZM105.607 18.2348H120.25C119.76 18.9192 119.536 19.6035 119.842 20.0337C120.373 20.7963 122.252 20.4245 122.742 20.2684C123.723 19.9751 124.254 19.3885 124.723 18.6063L127.174 14.5001H112.245C109.12 14.5001 109.018 12.7207 110.284 10.5894L114.879 3.11995C116.248 0.969062 118.086 0.695312 120.434 0.695312H146.392C149.027 0.695312 149.027 2.74843 147.965 4.60601L146.494 7.12841H131.769C132.219 6.30717 132.239 5.58369 131.892 5.13396C131.32 4.39092 129.809 4.54735 129.012 4.93842C128.379 5.27083 127.848 5.83788 127.276 6.7569L124.928 10.5894H139.367C142.41 10.5894 142.88 12.721 141.92 14.5001L137.529 21.5198C136.344 23.3774 134.302 24.4137 131.953 24.4137H106.18C103.647 24.4137 102.769 22.8103 103.851 21.0505L105.607 18.2348ZM74.7686 4.60601C77.1172 0.695312 81.018 0.695312 84.0406 0.695312H106.098C108.426 0.695312 110.386 2.55289 109.12 4.60601L99.3783 20.4834C97.3156 23.6511 95.6613 24.4137 93.0267 24.4137H67.355C64.8226 24.4137 63.6585 22.6343 65.0268 20.4834L74.7686 4.60601ZM87.5738 6.7569L80.1398 18.6063C79.8948 19.0365 79.7926 19.4273 79.9356 19.7404C80.4053 20.7181 83.285 20.5421 84.2857 20.3466C85.7153 20.0337 86.0829 19.056 86.3893 18.6063L93.7211 6.7569C94.2317 5.9161 94.1704 5.3686 93.7211 5.03619C93.0676 4.54735 91.0661 4.50824 89.9633 4.80155C89.0238 5.05574 88.2478 5.62279 87.5738 6.7569ZM39.1509 0.695312H67.4572C69.7037 0.695312 71.4601 2.65066 69.9896 4.99708L67.0691 9.74858C65.8029 11.8995 63.6585 12.9162 62.0859 12.9162C63.6585 13.757 63.6585 15.2428 62.862 16.5532L59.9415 21.4217C59.1654 22.7318 57.9809 24.4137 54.3864 24.4137H0V20.4834H26.9584L39.1509 0.695312ZM47.6469 10.5894H54.8562C56.5309 10.5894 57.2048 9.74858 57.5928 9.00555L59.0633 6.7569C59.6556 5.74011 59.6556 4.60601 58.3893 4.60601H51.3434L47.6469 10.5894ZM41.4995 20.4834H48.7088C50.3835 20.4834 51.0575 19.6424 51.4452 18.8996L52.916 16.651C53.5083 15.6146 53.5083 14.5001 52.2216 14.5001H45.1961L41.4995 20.4834ZM202.085 9.35751C200.962 9.35751 200.002 8.51671 200.002 7.38261C200.002 6.24851 200.962 5.42726 202.085 5.42726C203.209 5.42726 204.148 6.24851 204.148 7.38261C204.149 8.51671 203.209 9.35751 202.085 9.35751ZM200.411 7.38261C200.411 8.32118 201.146 9.0251 202.085 9.0251C203.004 9.0251 203.74 8.32118 203.74 7.38261C203.74 6.44404 203.004 5.74011 202.085 5.74011C201.146 5.74011 200.411 6.44404 200.411 7.38261ZM201.657 7.53904V8.51671H201.289V6.24851H202.188C202.76 6.24851 203.025 6.44404 203.025 6.89377C203.025 7.30439 202.76 7.48038 202.412 7.51948L203.087 8.51671H202.678L202.065 7.53904H201.657ZM201.657 7.24573H202.086C202.392 7.24573 202.658 7.22618 202.658 6.87422C202.658 6.60047 202.392 6.54181 202.147 6.54181H201.657V7.24573Z" fill="black"/>
</svg>
