<?xml version="1.0" encoding="UTF-8"?>
<svg width="1046px" height="775px" viewBox="0 0 1046 775" version="1.1" xmlns="http://www.w3.org/2000/svg" xmlns:xlink="http://www.w3.org/1999/xlink">
    <!-- Generator: Sketch 45.2 (43514) - http://www.bohemiancoding.com/sketch -->
    <title>Senza titolo</title>
    <desc>Created with Sketch.</desc>
    <defs/>
    <g id="Page-1" stroke="none" stroke-width="1" fill="none" fill-rule="evenodd">
        <g id="Senza-titolo" fill-rule="nonzero" fill="#333333">
            <path d="M0,742.362778 L0,710.597651 L100.001325,710.597651 L200.00265,710.597651 L200.00265,742.362778 L200.00265,774.127905 L100.001325,774.127905 L0,774.127905 L0,742.362778 Z M443.535289,742.362778 L443.535289,710.597651 L524.712835,710.597651 L605.890381,710.597651 L605.890381,742.362778 L605.890381,774.127905 L524.712835,774.127905 L443.535289,774.127905 L443.535289,742.362778 Z M845.893562,742.362778 L845.893562,710.597651 L945.894887,710.597651 L1045.89621,710.597651 L1045.89621,742.362778 L1045.89621,774.127905 L945.894887,774.127905 L845.893562,774.127905 L845.893562,742.362778 Z M0,318.827754 L0,0 L9.41188942,1.17648618 C64.7067398,4.70594471 111.766187,12.941348 164.708065,25.8826959 C300.003975,60.000795 417.652593,120.00159 510.595001,204.708595 C516.477432,209.41454 521.183377,214.120484 522.359863,214.120484 C522.359863,214.120484 524.712835,212.943998 527.065807,210.591026 C528.242294,208.238053 537.654183,200.00265 547.066072,191.767247 C672.950093,83.5305186 848.246534,15.2943203 1036.48432,1.17648618 L1045.89621,0 L1045.89621,318.827754 L1045.89621,637.655508 L1020.01352,637.655508 L992.954334,637.655508 L992.954334,345.886936 L992.954334,55.2948503 L988.248389,56.4713365 C897.658953,68.2361983 807.069518,97.6483527 724.715485,138.825369 C652.949828,175.29644 582.360658,227.061832 532.948238,278.827224 L522.359863,291.768572 L496.477167,267.062362 C482.359333,252.944528 464.71204,236.473722 457.653123,230.591291 C380.005035,165.884551 287.062627,116.472132 184.70833,84.7070048 C145.884286,72.942143 102.354297,62.3537674 71.7656568,58.8243089 C63.5302536,57.6478227 56.4713365,56.4713365 54.1183642,55.2948503 L50.5889056,55.2948503 L50.5889056,345.886936 L50.5889056,637.655508 L25.8826959,637.655508 L0,637.655508 L0,318.827754 Z M145.884286,458.829609 L145.884286,278.827224 L157.649148,278.827224 C212.943998,278.827224 274.121279,294.121544 322.357213,320.00424 C367.063687,343.533964 404.711245,377.652063 434.123399,421.182051 C461.182582,461.182582 483.535819,512.947973 495.300681,568.242824 L498.830139,583.537144 L521.183377,583.537144 C542.360128,583.537144 544.7131,583.537144 544.7131,581.184172 C545.889586,580.007685 547.066072,572.948768 549.419045,565.889851 C557.654448,527.065807 568.242824,497.653653 583.537144,464.71204 C617.655243,396.475842 665.891176,347.063422 729.42143,315.298296 C776.480877,292.945058 822.363838,281.180196 876.482202,278.827224 L897.658953,278.827224 L897.658953,457.653123 L897.658953,637.655508 L871.776257,637.655508 L845.893562,637.655508 L845.893562,487.065277 L845.893562,335.298561 L841.187617,335.298561 C823.540324,335.298561 787.069253,345.886936 761.186557,357.651798 C669.420635,401.181786 616.478757,491.771222 607.066868,617.655243 L605.890381,637.655508 L523.536349,637.655508 L442.358803,637.655508 L442.358803,630.596591 C442.358803,618.831729 438.829344,588.243089 435.299886,570.595796 C424.71151,512.947973 405.887731,465.888526 375.299091,428.240969 C367.063687,417.652593 348.239908,398.828814 337.651533,390.593411 C302.356948,361.181256 249.41507,338.828019 208.238053,335.298561 L200.00265,335.298561 L200.00265,485.888791 L200.00265,637.655508 L172.943468,637.655508 L145.884286,637.655508 L145.884286,458.829609 Z" id="Shape"/>
        </g>
    </g>
</svg>