<svg width="162" height="25" viewBox="0 0 162 25" fill="none" xmlns="http://www.w3.org/2000/svg">
<g clip-path="url(#clip0_840_1056)">
<path d="M27.0082 9.24793C26.4158 10.9199 22.6817 12.6664 13.5104 10.5932L14.7033 16.0095C23.8746 17.6764 29.3109 16.3056 32.4159 13.0457C34.7158 10.6297 35.1665 7.50442 33.2767 5.11319C31.278 2.58161 26.8508 0.746094 21.2594 0.746094C13.2613 0.746094 7.56211 3.06334 4.39799 11.7584L0.142578 23.449H7.58607L11.8201 11.6256C13.5571 6.76266 17.2078 5.95744 21.2594 5.95744C25.5079 5.95744 27.559 7.70723 27.0082 9.24793Z" fill="black"/>
<path d="M100.709 14.3801L100.421 14.256C102.086 13.592 103.894 13.2327 105.69 13.2327C106.781 13.2327 109.205 13.4176 110.227 14.0022C110.475 14.142 110.703 14.3614 110.581 14.6345C110.13 15.6514 103.49 15.5945 100.709 14.3801ZM114.306 11.6463C112.546 10.7058 109.646 9.95566 106.809 9.83985C100.924 9.59726 94.2161 11.6049 92.8796 16.3489C92.1079 19.0778 94.7525 22.7641 101.639 23.8099C105.085 24.3384 110.559 24.2045 114.499 22.9027L115.97 18.8525C107.98 21.5983 97.5369 20.801 97.8864 16.6884C101.752 19.1683 107.393 18.9332 111.569 18.2489C118.804 17.0682 118.698 13.9934 114.306 11.6463Z" fill="black"/>
<path d="M126.503 14.3801L126.218 14.256C127.882 13.592 129.691 13.2327 131.485 13.2327C132.579 13.2327 135 13.4176 136.022 14.0022C136.27 14.142 136.498 14.3614 136.376 14.6345C135.924 15.6514 129.288 15.5945 126.503 14.3801ZM140.1 11.6463C138.343 10.7058 135.44 9.95566 132.604 9.83985C126.722 9.59726 120.014 11.6049 118.674 16.3489C117.905 19.0778 120.55 22.7641 127.433 23.8099C130.878 24.3384 136.356 24.2045 140.295 22.9027L141.767 18.8525C133.777 21.5983 123.335 20.801 123.683 16.6884C127.549 19.1683 133.19 18.9332 137.364 18.2489C144.598 17.0682 144.496 13.9934 140.1 11.6463Z" fill="black"/>
<path d="M145.532 15.128L142.58 23.4528H149.394L151.666 17.047C152.224 15.4219 152.698 14.2067 154.685 14.2067H159.473L160.815 10.3711H151.995C149.045 10.3711 146.667 11.8342 145.532 15.128Z" fill="black"/>
<path d="M31.3848 23.4528H38.4396L43.2078 10.3711H36.153L31.3848 23.4528Z" fill="black"/>
<path d="M77.1613 16.4128C77.8172 14.613 79.8004 13.7798 81.537 13.7798C83.2587 13.7798 84.9071 14.7943 84.2691 16.5465L81.7503 23.4517H88.5641L91.1209 16.4376C92.4473 12.7948 89.5743 9.77734 83.14 9.77734C75.9771 9.77734 71.917 12.1182 70.3521 16.4047L67.7852 23.4517H74.596L77.1613 16.4128Z" fill="black"/>
<path d="M56.1416 13.9156C58.8953 14.0316 61.1142 15.4173 60.7186 17.2171C60.3393 18.9522 57.6557 20.1337 54.8705 20.0149C52.1176 19.9007 49.9007 18.5091 50.2931 16.7101C50.6747 14.9782 53.3572 13.7945 56.1416 13.9156ZM57.1016 9.84878C50.005 9.54747 43.6818 12.5813 42.8313 16.46C41.993 20.2772 46.7868 23.7788 53.9107 24.0801C61.0058 24.382 67.3312 21.3489 68.1829 17.4686C69.0187 13.6519 64.2251 10.148 57.1016 9.84878Z" fill="black"/>
</g>
<defs>
<clipPath id="clip0_840_1056">
<rect width="161.035" height="23.7184" fill="white" transform="translate(0 0.695312)"/>
</clipPath>
</defs>
</svg>
