<svg width="110" height="24" viewBox="0 0 110 24" fill="none" xmlns="http://www.w3.org/2000/svg">
<path fill-rule="evenodd" clip-rule="evenodd" d="M59.2332 13.7779L46.4039 1.20374V22.3511H50.2254V10.6343L63.0547 23.2084V2.06107H59.2332V13.7779ZM29.4801 0.917969C23.4749 0.917969 18.8345 5.77615 18.8345 12.0632C18.8345 18.0645 23.7479 23.2084 29.4801 23.2084C35.4853 23.2084 40.1257 18.3503 40.1257 12.0632C40.1257 5.77615 35.4853 0.917969 29.4801 0.917969ZM29.4801 19.2076C25.6586 19.2076 22.656 16.0641 22.656 12.0632C22.656 8.06235 25.6586 4.91882 29.4801 4.91882C33.3016 4.91882 36.3042 8.06235 36.3042 12.0632C36.3042 16.0641 33.3016 19.2076 29.4801 19.2076ZM12.2834 12.0632C11.1915 11.2059 9.82671 10.6343 7.91596 10.0628C4.09446 8.91967 4.09446 7.77657 4.09446 7.20502C4.09446 6.06192 5.45928 4.91882 7.37003 4.91882C9.00782 4.91882 10.3726 5.77615 10.9186 6.06192L11.1915 6.3477L14.1941 4.0615L13.9212 3.77572C13.9212 3.77572 11.4645 0.917969 7.37003 0.917969C5.45928 0.917969 3.54853 1.48952 2.18371 2.63262C0.818892 3.77572 0 5.49037 0 7.20502C0 8.91967 0.818892 10.6343 2.18371 11.7774C3.27557 12.6348 4.64039 13.2063 6.55114 13.7779C10.3726 14.921 10.3726 16.0641 10.3726 16.6356C10.3726 17.7787 9.00781 18.9218 7.09707 18.9218C5.45928 18.9218 4.09446 18.0645 3.54853 17.7787L3.27557 17.4929L0.272964 19.7791L0.545928 20.0649C0.545928 20.0649 3.0026 22.9227 7.09707 22.9227C9.00781 22.9227 10.9186 22.3511 12.2834 21.208C13.6482 20.0649 14.4671 18.3503 14.4671 16.6356C14.4671 14.921 13.6482 13.4921 12.2834 12.0632ZM79.9785 0.917969C73.9733 0.917969 69.3329 5.77615 69.3329 12.0632C69.3329 18.3503 74.2462 23.2084 79.9785 23.2084C85.9837 23.2084 90.6241 18.3503 90.6241 12.0632C90.6241 5.77615 85.7107 0.917969 79.9785 0.917969ZM79.9785 19.2076C76.157 19.2076 73.1544 16.0641 73.1544 12.0632C73.1544 8.06235 76.157 4.91882 79.9785 4.91882C83.8 4.91882 86.8026 8.06235 86.8026 12.0632C86.8026 16.0641 83.527 19.2076 79.9785 19.2076ZM97.1752 11.7774C98.2671 12.6348 99.6319 13.2063 101.543 13.7779C105.364 14.921 105.364 16.0641 105.364 16.6356C105.364 17.7787 103.999 18.9218 102.089 18.9218C100.451 18.9218 99.086 18.0645 98.54 17.7787H98.2671L95.2645 20.0649L95.5374 20.3507C95.5374 20.3507 97.9941 23.2084 102.089 23.2084C103.999 23.2084 105.91 22.6369 107.275 21.4938C108.64 20.3507 109.459 18.636 109.459 16.9214C109.459 15.2067 108.64 13.4921 107.275 12.349C106.183 11.4917 104.818 10.9201 102.907 10.3485C99.086 9.20545 99.086 8.06235 99.086 7.4908C99.086 6.3477 100.451 5.2046 102.362 5.2046C103.999 5.2046 105.364 6.06192 105.91 6.3477L106.183 6.63347L109.186 4.34727L108.913 4.0615C108.913 4.0615 106.456 1.20374 102.362 1.20374C100.451 1.20374 98.54 1.77529 97.1752 2.9184C95.8104 4.0615 94.9915 5.77615 94.9915 7.4908C94.7185 9.20545 95.5374 10.6343 97.1752 11.7774Z" fill="black"/>
</svg>
