<svg width="126" height="24" viewBox="0 0 126 24" fill="none" xmlns="http://www.w3.org/2000/svg">
<path d="M44.7862 23.2084C40.2279 23.2084 36.004 21.8406 33.188 19.2899C32.1811 18.3783 31.3787 17.2608 30.8346 16.012C30.2905 14.7632 30.0171 13.4118 30.0327 12.048C30.0295 10.6899 30.3087 9.34612 30.8521 8.10323C31.3955 6.86034 32.1913 5.74584 33.188 4.83147C35.8028 2.43777 40.4291 0.917969 44.7862 0.917969C49.6061 0.917969 53.4654 2.14141 56.4146 4.83653C57.4075 5.7506 58.1978 6.8653 58.7342 8.1079C59.2705 9.3505 59.5407 10.6931 59.5273 12.048C59.5205 13.4043 59.2413 14.7451 58.7063 15.9898C58.1714 17.2344 57.3918 18.357 56.4146 19.2899C53.6666 21.8558 49.3521 23.2084 44.7862 23.2084V20.2752C47.2024 20.2752 49.4451 19.4343 51.0115 17.8638C52.5779 16.2933 53.2894 14.3885 53.2894 12.0379C53.2894 9.79363 52.5075 7.6963 51.0115 6.21195C49.4653 4.67948 47.1698 3.81573 44.7862 3.81573C42.4027 3.81573 40.0972 4.67189 38.5509 6.21195C37.06 7.69883 36.2881 9.80376 36.2881 12.0379C36.2657 13.1113 36.4541 14.1785 36.8424 15.1783C37.2308 16.1781 37.8114 17.0908 38.5509 17.8638C40.0972 19.4165 42.3877 20.2752 44.7862 20.2752V23.2084ZM11.5027 0.917969C9.06638 0.917969 6.2982 1.37898 3.95995 2.43777C1.77759 3.42058 1.54922e-05 4.99864 1.54922e-05 7.61524C-0.00326325 8.98548 0.513999 10.3051 1.44571 11.3033C2.07678 11.891 3.09505 12.889 5.75512 13.4766C6.94436 13.7299 9.48626 14.1377 12.0181 14.4062C14.5499 14.6747 17.0038 14.9128 18.0095 15.1839C18.8091 15.389 20.1542 15.6677 20.1542 17.1875C20.1542 18.7073 18.7387 19.1632 18.4923 19.262C18.2459 19.3608 16.5463 20.146 13.494 20.146C11.4716 20.0895 9.46768 19.7423 7.54275 19.1151C6.40379 18.7047 5.20953 18.1652 4.09572 16.7949C3.64622 16.1495 3.39685 15.3844 3.37916 14.5962H0.613491V22.3979H3.6859V21.3416C3.68541 21.2633 3.70567 21.1862 3.74457 21.1184C3.78348 21.0505 3.83963 20.9944 3.90725 20.9556C3.97487 20.9169 4.0515 20.8971 4.12926 20.8982C4.20702 20.8992 4.2831 20.9211 4.34966 20.9617C5.79717 21.5962 7.30283 22.0866 8.84513 22.4257C10.4593 22.7652 11.5027 23.0109 13.509 23.0109C15.6262 23.0514 17.7362 22.7513 19.7595 22.1218C21.103 21.7508 22.3635 21.124 23.473 20.2752C24.097 19.7923 24.6014 19.1702 24.9465 18.4577C25.2916 17.7453 25.4679 16.9619 25.4618 16.1692C25.4723 14.6632 24.8953 13.2133 23.8552 12.1316C23.2768 11.5661 22.6067 11.1043 21.8739 10.7663C21.0862 10.4077 20.2683 10.1204 19.4301 9.90761C17.8361 9.515 14.2558 9.02359 12.5436 8.85135C10.7484 8.6639 7.63326 8.40301 6.38871 8.01546C6.01157 7.8964 5.24221 7.52912 5.24221 6.6299C5.24221 5.98905 5.59421 5.44699 6.28814 5.00878C7.39189 4.3122 9.61951 3.87905 11.9427 3.87905C14.1914 3.85171 16.4216 4.29056 18.4948 5.16835C19.0518 5.41282 19.5756 5.72776 20.0536 6.10557C20.8328 6.77607 21.3725 7.68539 21.5898 8.6943H24.0714V1.90331H21.3057V2.69107C21.3057 2.94437 21.0543 3.27873 20.5514 3.00263C19.3044 2.34912 15.7995 0.9357 11.5027 0.917969ZM72.2192 2.16421L85.7357 14.4518L85.5975 6.17903C85.5824 5.09236 85.3863 4.63896 84.2197 4.63896H81.6803V2.16421H93.2458V4.63896H90.7642C89.5775 4.63896 89.5071 5.02397 89.487 6.17903L89.6957 21.9875H85.7357L70.165 7.99013V17.922C70.1776 19.0036 70.2279 19.5128 71.3316 19.5128H74.0973V21.9875H62.7606V19.5128H65.4156C66.4062 19.5128 66.366 18.5604 66.366 17.8663V6.27275C66.366 5.51284 66.2604 4.64149 64.7066 4.64149H62.5544V2.16421H72.2192ZM106.441 19.5077C106.669 19.5077 106.898 19.4933 107.124 19.4646C107.242 19.429 107.351 19.368 107.443 19.2857C107.535 19.2035 107.608 19.102 107.657 18.9884C107.692 18.8124 107.71 18.6334 107.71 18.454V14.5405C107.71 14.4088 107.71 14.4062 107.544 14.1985C107.378 13.9908 100.464 6.0929 100.15 5.73828C99.7577 5.30767 99.0688 4.64149 98.0203 4.64149H95.6192V2.16421H109.171V4.63642H107.537C107.16 4.63642 106.908 4.99864 107.23 5.39633C107.23 5.39633 111.791 10.893 111.834 10.9512C111.876 11.0095 111.914 11.0221 111.972 10.9689C112.03 10.9157 116.646 5.44699 116.681 5.39633C116.736 5.32418 116.768 5.23777 116.776 5.14737C116.783 5.05696 116.764 4.96636 116.722 4.88633C116.68 4.8063 116.615 4.74021 116.537 4.69591C116.458 4.65161 116.369 4.63096 116.279 4.63642H114.602V2.16421H125.712V4.64149H123.231C122.331 4.64149 121.974 4.80867 121.287 5.5787L113.807 14.1757C113.734 14.2822 113.702 14.4119 113.717 14.5405V18.4514C113.718 18.631 113.737 18.81 113.772 18.9859C113.82 19.0996 113.893 19.2012 113.985 19.2835C114.076 19.3658 114.185 19.4268 114.303 19.4621C114.528 19.4921 114.754 19.5065 114.981 19.5052H117.518V21.9825H104.037V19.5052L106.441 19.5077Z" fill="black"/>
</svg>
