<svg width="98" height="22" viewBox="0 0 98 22" fill="none" xmlns="http://www.w3.org/2000/svg">
<path d="M10.5908 20.6486C5.40223 20.6486 1.19492 16.4413 1.19492 11.2528C1.19492 6.06239 5.40223 1.85694 10.5908 1.85694C15.7793 1.85694 19.9866 6.06425 19.9866 11.2528C19.9866 16.4413 15.7793 20.6486 10.5908 20.6486ZM10.5908 0.660156C4.74066 0.660156 0 5.40082 0 11.2528C0 17.101 4.74252 21.8435 10.5908 21.8435C16.4409 21.8435 21.1815 17.101 21.1815 11.2528C21.1815 5.40268 16.4409 0.660156 10.5908 0.660156Z" fill="black"/>
<path d="M14.1036 13.2781C13.9568 13.5308 13.6334 13.6182 13.3807 13.4714L12.0891 12.7243V12.1148L12.6188 11.81L13.9103 12.5552C14.1631 12.702 14.2485 13.0254 14.1036 13.2781ZM11.199 11.6019L10.5913 11.9531L9.98362 11.6019V10.8994L10.5913 10.5482L11.199 10.8994V11.6019ZM10.0617 7.72349C10.0617 7.43173 10.2977 7.19386 10.5894 7.19386C10.8812 7.19386 11.1191 7.42987 11.1191 7.72349V9.21575L10.5913 9.52052L10.0617 9.21575V7.72349ZM9.09347 12.7262L7.80191 13.4714C7.54918 13.6182 7.22582 13.5308 7.07901 13.2781C6.9322 13.0254 7.01954 12.702 7.27228 12.5552L8.56384 11.81L9.09161 12.1148V12.7262H9.09347ZM18.2886 15.5156L16.7499 13.7204C16.7313 13.6981 16.709 13.6795 16.683 13.6646C16.6049 13.62 16.512 13.6182 16.4358 13.6554C16.2017 13.7669 15.9173 13.765 15.6758 13.6256C15.4602 13.5011 15.3227 13.293 15.2799 13.0681C15.1721 12.492 14.8228 11.9643 14.2746 11.6502L13.5851 11.2525L17.5007 8.99275L17.0156 8.15277L12.6169 10.6931L12.0873 10.3884V9.77697L16.486 7.2366L16.001 6.39663L12.0854 8.65639V7.86101C12.0854 7.22917 11.8029 6.66237 11.3588 6.28141C11.1841 6.13088 11.0726 5.90974 11.0726 5.66072C11.0726 5.38197 11.212 5.13295 11.4257 4.98614C11.4963 4.93782 11.5409 4.85791 11.5409 4.76685C11.5409 4.73712 11.5353 4.70739 11.5279 4.68137L10.7418 2.45134C10.7195 2.3863 10.6582 2.33984 10.5857 2.33984C10.5132 2.33984 10.4519 2.3863 10.4315 2.45134L9.6454 4.68137C9.63611 4.70924 9.63053 4.73712 9.63053 4.76685C9.63053 4.85791 9.67513 4.93782 9.74575 4.98614C9.95946 5.13295 10.1007 5.38197 10.1007 5.66072C10.1007 5.90974 9.98919 6.13274 9.81451 6.28141C9.37036 6.66237 9.08789 7.22917 9.08789 7.86101V8.65639L5.17234 6.39663L4.68731 7.2366L9.08789 9.77697V10.3884L8.56012 10.6931L4.15954 8.15277L3.67451 8.99275L7.59006 11.2525L6.90061 11.6502C6.3524 11.9661 6.00488 12.492 5.89524 13.0681C5.8525 13.2948 5.71498 13.503 5.49941 13.6256C5.25597 13.765 4.9735 13.7669 4.73749 13.6554C4.66129 13.6182 4.56838 13.62 4.49033 13.6646C4.46431 13.6795 4.44201 13.6981 4.42343 13.7204L2.88471 15.5156C2.84011 15.5676 2.82896 15.6419 2.86612 15.707C2.90143 15.7683 2.97205 15.798 3.03895 15.785L5.36189 15.3502C5.38977 15.3446 5.41764 15.3353 5.44366 15.3204C5.52171 15.274 5.56817 15.1959 5.5756 15.1104C5.59605 14.8521 5.741 14.6068 5.98258 14.4675C6.19815 14.3448 6.44531 14.3281 6.66274 14.4043C7.21467 14.5994 7.84651 14.5604 8.39287 14.2426L9.08232 13.8468V18.3681H10.0524V13.2874L10.582 12.9826L11.1098 13.2874V18.3681H12.0798V13.8468L12.7674 14.2426C13.3138 14.5585 13.9456 14.5975 14.4994 14.4043C14.7168 14.3281 14.9659 14.3429 15.1796 14.4675C15.4212 14.6068 15.5643 14.8521 15.5866 15.1104C15.5921 15.1959 15.6404 15.274 15.7185 15.3204C15.7445 15.3353 15.7724 15.3465 15.8003 15.3502L18.1232 15.785C18.1901 15.798 18.2607 15.7683 18.2979 15.707C18.3444 15.6419 18.3332 15.5657 18.2886 15.5156Z" fill="black"/>
<path d="M81.1101 9.09857H77.5755V2.03125H74.3457V20.468H77.5755V12.373H81.1101V20.468H84.4087V2.03125H81.1101V9.09857Z" fill="black"/>
<path d="M31.4074 2.03125L28.9693 9.21379L26.7615 2.03125H23.541L27.1239 13.3356V20.468H30.7105V12.9695L34.4254 2.03125H31.4074Z" fill="black"/>
<path d="M53.1358 10.8008L51.3406 2.03125H46.3008V20.468H49.1905V6.57121L51.6584 18.6524H54.3567L56.5459 6.37422V20.468H59.9355V2.03125H54.682L53.1358 10.8008Z" fill="black"/>
<path d="M90.0995 13.1052L91.4728 4.85966L92.8071 13.1052H90.0995ZM94.2474 2.03125H89.254L85.8848 20.468H88.873L89.5866 16.177H93.3033L93.9965 20.468H97.2895L94.2474 2.03125Z" fill="black"/>
<path d="M65.6248 13.1052L66.9981 4.85966L68.3324 13.1052H65.6248ZM64.7793 2.03125L61.4082 20.468H64.3964L65.1119 16.177H68.8286L69.5218 20.468H72.8129L69.7708 2.03125H64.7793Z" fill="black"/>
<path d="M37.5817 13.1052L38.9551 4.85966L40.2875 13.1052H37.5817ZM36.7343 2.03125L33.3633 20.468H36.3515L37.067 16.177H40.7837L41.4769 20.468H44.768L41.7259 2.03125H36.7343Z" fill="black"/>
</svg>
